<svg width="32" height="43" fill="none" xmlns="http://www.w3.org/2000/svg"><path d="M15.89 18.62 2.3 21.1l5.1 19.98c.15.54.64.94 1.2.94h14.77c.57 0 1.06-.4 1.2-.94l5.1-19.98-13.8-2.47Zm-2.35-3.69c.68 0 1.23-.55 1.23-1.23V1.23a1.23 1.23 0 1 0-2.46 0V13.7c0 .68.55 1.23 1.23 1.23Zm4.92 0c.68 0 1.23-.55 1.23-1.23V1.23a1.23 1.23 0 1 0-2.46 0V13.7c0 .68.55 1.23 1.23 1.23Z" fill="url(#a)"/><path d="M31.3 15.05c-.58-.29-1.32-.04-1.64.57l-1.5 3-3.74-5.6a1.25 1.25 0 0 0-1.04-.55H8.62c-.42 0-.8.2-1.04.54l-3.74 5.61-1.5-3a1.25 1.25 0 0 0-1.65-.56 1.25 1.25 0 0 0-.57 1.64l2.2 4.39h27.36l2.2-4.39c.3-.59.04-1.32-.57-1.64ZM16 27.24a3.7 3.7 0 1 0 0 7.4 3.7 3.7 0 0 0 0-7.4Z" fill="url(#b)"/><defs><linearGradient id="a" x1="16" y1="42.01" x2="16" y2="0" gradientUnits="userSpaceOnUse"><stop stop-color="#FD3A84"/><stop offset="1" stop-color="#FFA68D"/></linearGradient><linearGradient id="b" x1="16" y1="34.62" x2="16" y2="12.47" gradientUnits="userSpaceOnUse"><stop stop-color="#FFC2CC"/><stop offset="1" stop-color="#FFF2F4"/></linearGradient></defs></svg>