<svg width="52" height="44" fill="none" xmlns="http://www.w3.org/2000/svg"><path d="M37.4 36.55v-22.1h-34v22.1c0 .94.76 1.7 1.7 1.7h30.6c.94 0 1.7-.76 1.7-1.7Z" fill="#289BC3"/><path d="M13.6 33.15h-3.4a5.1 5.1 0 1 0 0 10.2h3.4a5.1 5.1 0 1 0 0-10.2ZM44.2 33.15h-3.4a5.1 5.1 0 1 0 0 10.2h3.4a5.1 5.1 0 1 0 0-10.2Z" fill="#32283C"/><path d="M40.8 43.35a5.1 5.1 0 1 0 0-10.2 5.1 5.1 0 0 0 0 10.2Z" fill="#555A6E"/><path d="M40.8 39.95a1.7 1.7 0 1 0 0-3.4 1.7 1.7 0 0 0 0 3.4Z" fill="#E6E6EB"/><path d="M30.6 33.15h-3.4a5.1 5.1 0 0 0 0 10.2h3.4a5.1 5.1 0 1 0 0-10.2Z" fill="#32283C"/><path d="M47.6 16.15H22.1c-.94 0-1.7.76-1.7 1.7v1.7h27.2a1.7 1.7 0 1 0 0-3.4Z" fill="#A5C3DC"/><path d="M30.6 16.15h-8.5c-.94 0-1.7.76-1.7 1.7v1.7h10.2a1.7 1.7 0 1 0 0-3.4Z" fill="#D7E6F0"/><path d="M20.4 19.55h27.2v8.5H20.4v-8.5Z" fill="#463C4B"/><path d="M20.4 19.55h10.2v8.5H20.4v-8.5Z" fill="#555A6E"/><path d="M49.3 38.25H22.1a1.7 1.7 0 0 1-1.7-1.7v-8.5h27.2a3.4 3.4 0 0 1 3.4 3.4v5.1c0 .94-.76 1.7-1.7 1.7Z" fill="#A5C3DC"/><path d="M32.3 38.25H22.1a1.7 1.7 0 0 1-1.7-1.7v-8.5h10.2a3.4 3.4 0 0 1 3.4 3.4v5.1c0 .94-.76 1.7-1.7 1.7Z" fill="#D7E6F0"/><path d="M38.1 31.45h8.8a2.4 2.4 0 1 1-.01 4.82h-8.78a2.4 2.4 0 1 1 0-4.82Z" fill="#555A6E"/><path d="M38.11 35.13a1.28 1.28 0 1 0 0-2.55 1.28 1.28 0 0 0 0 2.55ZM46.89 35.13a1.28 1.28 0 1 0 0-2.55 1.28 1.28 0 0 0 0 2.55Z" fill="#00D2D2"/><path d="M16.15 0h-5.1a.85.85 0 0 0 0 1.7A5.96 5.96 0 0 1 17 7.65c0 .47.38.85.85.85h5.1c.47 0 .85-.38.85-.85A7.66 7.66 0 0 0 16.15 0Z" fill="#A5C3DC"/><path d="M29.75 0h-5.1A7.66 7.66 0 0 0 17 7.65c0 .47.38.85.85.85h5.1c.47 0 .85-.38.85-.85a5.96 5.96 0 0 1 5.95-5.95.85.85 0 1 0 0-1.7Z" fill="#A5C3DC"/><path d="M33.15 0h-5.1a.85.85 0 0 0 0 1.7 2.55 2.55 0 0 1 0 5.1.85.85 0 0 0 0 1.7h5.1a4.25 4.25 0 0 0 0-8.5ZM12.75 6.8a2.55 2.55 0 0 1 0-5.1.85.85 0 0 0 0-1.7h-5.1a4.25 4.25 0 0 0 0 8.5h5.1a.85.85 0 0 0 0-1.7Z" fill="#A5C3DC"/><path d="M39.1 8.5H1.7c-.94 0-1.7.76-1.7 1.7v2.55c0 .94.76 1.7 1.7 1.7h37.4c.94 0 1.7-.76 1.7-1.7V10.2c0-.94-.76-1.7-1.7-1.7Z" fill="#289BC3"/><path d="M18.7 38.25H5.1a1.7 1.7 0 0 1-1.7-1.7v-17h17v17c0 .94-.76 1.7-1.7 1.7ZM20.4 8.5H1.7c-.94 0-1.7.76-1.7 1.7v2.55c0 .94.76 1.7 1.7 1.7h18.7c.94 0 1.7-.76 1.7-1.7V10.2c0-.94-.76-1.7-1.7-1.7Z" fill="#00D2D2"/><path d="M11.9 12.75c0 .94.76 1.7 1.7 1.7H8.5a1.7 1.7 0 0 1-1.7-1.7V10.2c0-.94.76-1.7 1.7-1.7h5.1c-.94 0-1.7.76-1.7 1.7v2.55Z" fill="#D7E6F0"/><path d="M28.9 12.75c0 .94-.76 1.7-1.7 1.7h5.1c.94 0 1.7-.76 1.7-1.7V10.2c0-.94-.76-1.7-1.7-1.7h-5.1c.94 0 1.7.76 1.7 1.7v2.55Z" fill="#A5C3DC"/><path d="M28.05 8.5H17v-.85A7.66 7.66 0 0 1 24.65 0h3.4a4.25 4.25 0 0 1 0 8.5Zm-9.29-1.7h9.3a2.55 2.55 0 0 0 0-5.1h-3.4c-3 0-5.48 2.22-5.9 5.1Z" fill="#D7E6F0"/><path d="M18.7 8.5H7.65a4.25 4.25 0 0 1 0-8.5h3.4a7.66 7.66 0 0 1 7.65 7.65v.85ZM7.65 1.7a2.55 2.55 0 0 0 0 5.1h9.29a5.96 5.96 0 0 0-5.9-5.1h-3.4Z" fill="#D7E6F0"/><path d="M27.2 43.35a5.1 5.1 0 1 0 0-10.2 5.1 5.1 0 0 0 0 10.2Z" fill="#555A6E"/><path d="M27.2 39.95a1.7 1.7 0 1 0 0-3.4 1.7 1.7 0 0 0 0 3.4Z" fill="#E6E6EB"/><path d="M10.2 43.35a5.1 5.1 0 1 0 0-10.2 5.1 5.1 0 0 0 0 10.2Z" fill="#555A6E"/><path d="M10.2 39.95a1.7 1.7 0 1 0 0-3.4 1.7 1.7 0 0 0 0 3.4Z" fill="#E6E6EB"/></svg>