<svg width="54" height="54" fill="none" xmlns="http://www.w3.org/2000/svg"><path d="M43.69 30.38h-8.25a.84.84 0 1 1 0-1.7h8.25a.84.84 0 1 1 0 1.7Z" fill="#E0E2E5"/><path d="M25.31 19.4 27 39.67v1.68h10.13v-1.68L38.8 19.4h-13.5Z" fill="#93573D"/><path d="M16.88 19.4v-.84H13.5v2.53h-3.38v8.44h6.76v-.84h3.37V19.4h-3.38Z" fill="#FDD14B"/><path d="M13.5 32.06a.84.84 0 0 1-.84-.84v-9.28a.84.84 0 1 1 1.68 0v9.28a.84.84 0 0 1-.84.84ZM17 33.75a.84.84 0 0 1-.85-.84l-.12-12.65a.84.84 0 0 1 1.69-.02l.12 12.66a.84.84 0 0 1-.84.85Z" fill="#E4BC43"/><path d="m9.28 27.84 1.69 11.82v1.68h10.12v-13.5H9.3Z" fill="#E74444"/><path d="M48.94 30.38h-1.69a.84.84 0 1 1 0-1.7h1.69a.84.84 0 1 1 0 1.7Z" fill="#E0E2E5"/><path d="m38.81 19.4-.28 3.38H25.6l-.28-3.37h13.5Z" fill="#A4D4F4"/><path d="M23.67 14.34a.84.84 0 0 1-.7-1.3l.8-1.21a.84.84 0 0 0-.2-1.14l-.81-.62a2.53 2.53 0 0 1-.59-3.43l.8-1.2a.84.84 0 0 1 1.4.93l-.8 1.2a.84.84 0 0 0 .2 1.15l.82.62a2.53 2.53 0 0 1 .59 3.43l-.8 1.2a.84.84 0 0 1-.7.37ZM16.92 14.34a.84.84 0 0 1-.7-1.3l.8-1.21a.84.84 0 0 0-.2-1.14l-.81-.62a2.53 2.53 0 0 1-.59-3.43l.8-1.2a.84.84 0 1 1 1.4.93l-.8 1.2a.84.84 0 0 0 .2 1.15l.82.62a2.53 2.53 0 0 1 .59 3.43l-.8 1.2a.84.84 0 0 1-.7.37ZM30.33 14.34a.84.84 0 0 1-.7-1.3l.8-1.21a.84.84 0 0 0-.2-1.14l-.82-.62a2.53 2.53 0 0 1-.58-3.43l.8-1.2a.84.84 0 1 1 1.4.93l-.8 1.2a.84.84 0 0 0 .2 1.15l.82.62a2.53 2.53 0 0 1 .59 3.43l-.8 1.2a.84.84 0 0 1-.71.37ZM51.47 25.31h-9.28a.84.84 0 1 1 0-1.68h9.28a.84.84 0 0 1 0 1.68ZM45.56 35.44H40.5a.84.84 0 1 1 0-1.69h5.06a.84.84 0 1 1 0 1.69Z" fill="#E0E2E5"/><path d="M51.47 48.94H2.53a.84.84 0 0 1 0-1.69h48.94a.84.84 0 0 1 0 1.69Z" fill="#C2C5C6"/><path d="M2.53 39.66h42.19v1.68a1.69 1.69 0 0 1-1.69 1.7H4.22a1.69 1.69 0 0 1-1.69-1.7v-1.68Z" fill="#FDD14B"/><path d="M36.28 48.1a5.06 5.06 0 1 0 0-10.13 5.06 5.06 0 0 0 0 10.12Z" fill="#6A7073"/><path d="M36.28 44.72a1.69 1.69 0 1 0 0-3.38 1.69 1.69 0 0 0 0 3.38Z" fill="#99A2A7"/><path d="M10.97 48.1a5.06 5.06 0 1 0 0-10.13 5.06 5.06 0 0 0 0 10.12Z" fill="#6A7073"/><path d="M10.97 44.72a1.69 1.69 0 1 0 0-3.38 1.69 1.69 0 0 0 0 3.38Z" fill="#99A2A7"/><path d="M16.03 36.28h15.19v1.69a1.69 1.69 0 0 1-1.69 1.69H17.72a1.69 1.69 0 0 1-1.69-1.7v-1.68Z" fill="#EA8333"/><path d="M30.53 32.9c.85 0 1.53.76 1.53 1.7 0 .93-.68 1.68-1.53 1.68h-13.8c-.86 0-1.54-.75-1.54-1.69 0-.93.68-1.68 1.53-1.68h13.8Z" fill="#794832"/><path d="M16.88 29.53h13.5v3.38h-13.5v-3.38Z" fill="#FDD14B"/><path d="M32.9 30.38a2.6 2.6 0 0 1-2.65 2.53 2.68 2.68 0 0 1-2.2-1.14 2.72 2.72 0 0 1-4.43 0 2.72 2.72 0 0 1-4.41 0A2.68 2.68 0 0 1 17 32.91a2.6 2.6 0 0 1-2.66-2.53.84.84 0 0 1 .85-.85h16.87a.84.84 0 0 1 .85.84Z" fill="#3BA673"/><path d="M31.22 22.78v-6.75a.84.84 0 0 1 .53-.78l4.22-1.69a.84.84 0 0 1 .62 1.57l-3.68 1.47v6.18h-1.7Z" fill="#E74444"/><path d="M31.22 19.4h1.69v3.38h-1.7v-3.37Z" fill="#CE3536"/></svg>