<svg width="44" height="44" fill="none" xmlns="http://www.w3.org/2000/svg"><path d="M35.57 30.37H12.54a.93.93 0 0 1-.93-.93V18.68c0-.52.42-.93.93-.93h23.03c.52 0 .94.41.94.93v10.76c0 .51-.42.93-.94.93Z" fill="url(#a)"/><path d="m11.64 29.05 1.32 1.32h22.61c.52 0 .94-.42.94-.93V18.68a.93.93 0 0 0-.94-.93H12.54a.93.93 0 0 0-.93.93V29l.03.05Z" fill="url(#b)"/><path d="M34.17 28.97H11.14a.93.93 0 0 1-.93-.93V17.28c0-.52.41-.93.93-.93h23.03c.52 0 .94.41.94.93v10.76c0 .51-.42.93-.94.93Z" fill="url(#c)"/><path d="m10.23 27.65 1.32 1.32h22.62c.52 0 .94-.42.94-.93V17.28a.93.93 0 0 0-.94-.93H11.14a.93.93 0 0 0-.93.93V27.6l.02.05Z" fill="url(#d)"/><path d="M32.77 27.57H9.74a.93.93 0 0 1-.93-.93V15.88c0-.52.42-.93.93-.93h23.03c.52 0 .94.41.94.93v10.76c0 .51-.42.93-.94.93Z" fill="url(#e)"/><path d="m8.83 26.25 1.33 1.32h22.61c.52 0 .94-.42.94-.93V15.88a.93.93 0 0 0-.94-.93H9.74a.93.93 0 0 0-.93.93v10.31l.02.06Z" fill="url(#f)"/><path d="M31.46 26.25H8.43a.93.93 0 0 1-.94-.93V14.56c0-.51.42-.93.94-.93h23.03c.51 0 .93.42.93.93v10.76c0 .52-.42.93-.93.93Z" fill="url(#g)"/><path d="M30.98 16.3a1.34 1.34 0 0 1-1.21-1.7H10.1a1.33 1.33 0 0 1-1.86 1.57v7.54a1.33 1.33 0 0 1 1.86 1.57h19.66a1.33 1.33 0 0 1 1.86-1.57v-7.54c-.2.1-.42.14-.65.13Z" fill="url(#h)"/><path d="M19.94 23.17a3.23 3.23 0 1 0 0-6.46 3.23 3.23 0 0 0 0 6.46Z" fill="url(#i)"/><path d="M15.5 15.8h-4.97v1.42h4.97v-1.43Z" fill="url(#j)"/><path d="M29.35 22.66h-4.97v1.43h4.97v-1.43Z" fill="url(#k)"/><path d="M42.73 9.97a1.93 1.93 0 0 0-2.32.84A21.57 21.57 0 0 0 21.94.4C17.31.42 12.9 1.87 9.18 4.6a21.5 21.5 0 0 0-7.73 10.6 1.93 1.93 0 0 0 3.67 1.22 17.65 17.65 0 0 1 6.35-8.7 17.58 17.58 0 0 1 10.47-3.43 17.74 17.74 0 0 1 14.92 8.15 1.93 1.93 0 0 0-.95 3.72l4.02 1.47h.03l.1.04.06.02.1.02.06.01.11.01.05.01H40.78l.12-.02h.04l.1-.03h.05l.1-.04h.02l.02-.01a1.94 1.94 0 0 0 .3-.14c.01 0 .03 0 .04-.02l.14-.08.05-.04a2.07 2.07 0 0 0 .23-.2l.02-.03.11-.13.01-.01.1-.13a2.02 2.02 0 0 0 .09-.15l.01-.05.05-.11.02-.05.01-.02 1.47-4.02c.37-1-.15-2.11-1.15-2.48Z" fill="url(#l)"/><path d="M1.27 34.03c.89.32 1.86-.05 2.32-.84a21.57 21.57 0 0 0 18.47 10.4c4.63 0 9.04-1.45 12.76-4.18a21.5 21.5 0 0 0 7.73-10.6 1.93 1.93 0 1 0-3.67-1.22 17.65 17.65 0 0 1-6.35 8.7 17.58 17.58 0 0 1-10.47 3.43 17.74 17.74 0 0 1-14.92-8.15 1.93 1.93 0 0 0 .95-3.72l-4.02-1.47h-.03a1.92 1.92 0 0 0-.1-.04l-.06-.02-.1-.02-.06-.01-.11-.02h-.39l-.12.02h-.04l-.1.03H2.9l-.1.04h-.02l-.02.01a2.02 2.02 0 0 0-.3.14 1.92 1.92 0 0 0-.17.1l-.06.04a2 2 0 0 0-.23.2l-.02.03-.11.13-.01.01-.1.13c0 .02 0 .03-.02.04l-.06.11-.02.05-.05.11-.02.05-.01.02-1.47 4.02c-.37 1 .15 2.11 1.15 2.48Z" fill="url(#m)"/><defs><linearGradient id="a" x1="11.61" y1="24.06" x2="36.51" y2="24.06" gradientUnits="userSpaceOnUse"><stop stop-color="#61DB99"/><stop offset="1" stop-color="#009E74"/></linearGradient><linearGradient id="b" x1="25.18" y1="27.87" x2="23.88" y2="23.12" gradientUnits="userSpaceOnUse"><stop stop-color="#009E74" stop-opacity="0"/><stop offset="1" stop-color="#009E74"/></linearGradient><linearGradient id="c" x1="10.21" y1="22.66" x2="35.1" y2="22.66" gradientUnits="userSpaceOnUse"><stop stop-color="#61DB99"/><stop offset="1" stop-color="#009E74"/></linearGradient><linearGradient id="d" x1="23.63" y1="27.04" x2="22.77" y2="22.91" gradientUnits="userSpaceOnUse"><stop stop-color="#009E74" stop-opacity="0"/><stop offset="1" stop-color="#009E74"/></linearGradient><linearGradient id="e" x1="8.81" y1="21.26" x2="33.71" y2="21.26" gradientUnits="userSpaceOnUse"><stop stop-color="#61DB99"/><stop offset="1" stop-color="#009E74"/></linearGradient><linearGradient id="f" x1="23.13" y1="28.4" x2="19.13" y2="12.54" gradientUnits="userSpaceOnUse"><stop stop-color="#009E74" stop-opacity="0"/><stop offset="1" stop-color="#009E74"/></linearGradient><linearGradient id="g" x1="7.49" y1="19.94" x2="32.39" y2="19.94" gradientUnits="userSpaceOnUse"><stop stop-color="#A7F3CE"/><stop offset="1" stop-color="#61DB99"/></linearGradient><linearGradient id="h" x1="13.44" y1="13.44" x2="29.28" y2="29.28" gradientUnits="userSpaceOnUse"><stop stop-color="#61DB99"/><stop offset="1" stop-color="#009E74"/></linearGradient><linearGradient id="i" x1="18.02" y1="18.02" x2="22.7" y2="22.7" gradientUnits="userSpaceOnUse"><stop stop-color="#A7F3CE"/><stop offset="1" stop-color="#61DB99"/></linearGradient><linearGradient id="j" x1="11.67" y1="15.16" x2="14.95" y2="18.44" gradientUnits="userSpaceOnUse"><stop stop-color="#A7F3CE"/><stop offset="1" stop-color="#61DB99"/></linearGradient><linearGradient id="k" x1="25.52" y1="22.03" x2="28.8" y2="25.31" gradientUnits="userSpaceOnUse"><stop stop-color="#A7F3CE"/><stop offset="1" stop-color="#61DB99"/></linearGradient><linearGradient id="l" x1="1.35" y1="9.08" x2="44" y2="9.08" gradientUnits="userSpaceOnUse"><stop stop-color="#FFB92D"/><stop offset="1" stop-color="#F59500"/></linearGradient><radialGradient id="m" cx="0" cy="0" r="1" gradientUnits="userSpaceOnUse" gradientTransform="rotate(180 11.14 11.07) scale(21.8589)"><stop stop-color="#BE3F45"/><stop offset=".32" stop-color="#C14046"/><stop offset=".54" stop-color="#CA4148"/><stop offset=".73" stop-color="#D9444B"/><stop offset=".9" stop-color="#EF4950"/><stop offset="1" stop-color="#FF4C54"/></radialGradient></defs></svg>